<svg xmlns="http://www.w3.org/2000/svg" xmlns:xlink="http://www.w3.org/1999/xlink" width="141" height="33"
     viewBox="0 0 141 33">
    <defs>
        <linearGradient id="a" x1="16" y1="0.5" x2="16" y2="30.95" gradientUnits="userSpaceOnUse">
            <stop offset="0" stop-color="#fff"/>
            <stop offset="1" stop-color="#eee"/>
        </linearGradient>
    </defs>
    <title>new logo white</title>
    <g opacity="0.3">
        <path d="M28,1H4A4,4,0,0,0,0,5V23a4,4,0,0,0,4,4h6.34L16,32.66,21.66,27H28a4,4,0,0,0,4-4V5A4,4,0,0,0,28,1ZM14.5,5.25h3a1.54,1.54,0,0,1,1.45,1.68l-.27,8.7A1.38,1.38,0,0,1,17.32,17H14.68a1.38,1.38,0,0,1-1.36-1.34l-.27-8.7A1.54,1.54,0,0,1,14.5,5.25Zm4.5,18a1.5,1.5,0,0,1-1.5,1.5h-3a1.5,1.5,0,0,1-1.5-1.5V20.72a1.5,1.5,0,0,1,1.5-1.5h3a1.5,1.5,0,0,1,1.5,1.5Z"
              transform="translate(0 0)"/>
    </g>


    <path d="M10.55,25.5H4A3.5,3.5,0,0,1,.5,22V4A3.5,3.5,0,0,1,4,.5H28A3.5,3.5,0,0,1,31.5,4V22A3.5,3.5,0,0,1,28,25.5H21.45L16,31Zm4-7.78a2,2,0,0,0-2,2v2.53a2,2,0,0,0,2,2h3a2,2,0,0,0,2-2V19.72a2,2,0,0,0-2-2Zm0-14a1.86,1.86,0,0,0-1.34.58,2.23,2.23,0,0,0-.61,1.61l.27,8.7a1.89,1.89,0,0,0,1.86,1.82h2.64a1.89,1.89,0,0,0,1.86-1.82l.27-8.7a2.23,2.23,0,0,0-.61-1.61,1.86,1.86,0,0,0-1.34-.58Z"
          transform="translate(0 0)" fill="url(#a)"/>
    <path d="M28,1a3,3,0,0,1,3,3V22a3,3,0,0,1-3,3H21.24l-.29.29L16,30.24l-4.95-4.95L10.76,25H4a3,3,0,0,1-3-3V4A3,3,0,0,1,4,1H28M14.68,17h2.64a2.39,2.39,0,0,0,2.36-2.31L19.95,6a2.73,2.73,0,0,0-.75-2,2.36,2.36,0,0,0-1.7-.73h-3A2.36,2.36,0,0,0,12.8,4a2.73,2.73,0,0,0-.75,2l.27,8.7A2.39,2.39,0,0,0,14.68,17m-.18,7.78h3a2.5,2.5,0,0,0,2.5-2.5V19.72a2.5,2.5,0,0,0-2.5-2.5h-3a2.5,2.5,0,0,0-2.5,2.5v2.53a2.5,2.5,0,0,0,2.5,2.5M28,0H4A4,4,0,0,0,0,4V22a4,4,0,0,0,4,4h6.34L16,31.66,21.66,26H28a4,4,0,0,0,4-4V4a4,4,0,0,0-4-4ZM14.68,16a1.38,1.38,0,0,1-1.36-1.34l-.27-8.7A1.54,1.54,0,0,1,14.5,4.25h3a1.54,1.54,0,0,1,1.45,1.68l-.27,8.7A1.38,1.38,0,0,1,17.32,16Zm-.18,7.78a1.5,1.5,0,0,1-1.5-1.5V19.72a1.5,1.5,0,0,1,1.5-1.5h3a1.5,1.5,0,0,1,1.5,1.5v2.53a1.5,1.5,0,0,1-1.5,1.5Z"
          transform="translate(0 0)" fill="#fff"/>
</svg>